<?xml version="1.0" encoding="UTF-8" standalone="no"?>
<!DOCTYPE svg PUBLIC "-//W3C//DTD SVG 1.1//EN"
 "http://www.w3.org/Graphics/SVG/1.1/DTD/svg11.dtd">
<!-- Generated by graphviz version 2.42.3 (20191010.1750)
 -->
<!-- Title: finite_state_machine Pages: 1 -->
<svg width="576pt" height="245pt"
 viewBox="0.00 0.00 576.00 245.04" xmlns="http://www.w3.org/2000/svg" xmlns:xlink="http://www.w3.org/1999/xlink">
<g id="graph0" class="graph" transform="scale(1.02 1.02) rotate(0) translate(4 247)">
<title>finite_state_machine</title>
<polygon fill="white" stroke="transparent" points="-4,4 -4,-247 586,-247 586,4 -4,4"/>
<!-- 4 -->
<g id="node1" class="node">
<title>4</title>
<ellipse fill="none" stroke="black" cx="200" cy="-179" rx="18" ry="18"/>
<text text-anchor="middle" x="200" y="-175.3" font-family="Times,serif" font-size="14.00">4</text>
</g>
<!-- 5 -->
<g id="node2" class="node">
<title>5</title>
<ellipse fill="none" stroke="black" cx="473" cy="-170" rx="18" ry="18"/>
<text text-anchor="middle" x="473" y="-166.3" font-family="Times,serif" font-size="14.00">5</text>
</g>
<!-- 4&#45;&gt;5 -->
<g id="edge1" class="edge">
<title>4&#45;&gt;5</title>
<path fill="none" stroke="black" d="M218.36,-178.42C264.25,-176.9 389.02,-172.76 444.63,-170.91"/>
<polygon fill="black" stroke="black" points="444.9,-174.4 454.78,-170.57 444.67,-167.41 444.9,-174.4"/>
<text text-anchor="middle" x="336.5" y="-177.8" font-family="Times,serif" font-size="14.00">1</text>
</g>
<!-- 7 -->
<g id="node3" class="node">
<title>7</title>
<ellipse fill="none" stroke="black" cx="564" cy="-144" rx="18" ry="18"/>
<text text-anchor="middle" x="564" y="-140.3" font-family="Times,serif" font-size="14.00">7</text>
</g>
<!-- 4&#45;&gt;7 -->
<g id="edge2" class="edge">
<title>4&#45;&gt;7</title>
<path fill="none" stroke="black" d="M213.38,-191.11C229.57,-205.62 259.49,-228 290,-228 290,-228 290,-228 474,-228 508.85,-228 535.58,-193.51 550.29,-168.73"/>
<polygon fill="black" stroke="black" points="553.46,-170.23 555.33,-159.8 547.37,-166.79 553.46,-170.23"/>
<text text-anchor="middle" x="382" y="-231.8" font-family="Times,serif" font-size="14.00">7</text>
</g>
<!-- 2 -->
<g id="node4" class="node">
<title>2</title>
<ellipse fill="none" stroke="black" cx="291" cy="-119" rx="18" ry="18"/>
<text text-anchor="middle" x="291" y="-115.3" font-family="Times,serif" font-size="14.00">2</text>
</g>
<!-- 4&#45;&gt;2 -->
<g id="edge3" class="edge">
<title>4&#45;&gt;2</title>
<path fill="none" stroke="black" d="M214.79,-168.38C221.16,-163.56 228.88,-157.88 236,-153 245.84,-146.26 256.94,-139.18 266.52,-133.24"/>
<polygon fill="black" stroke="black" points="268.45,-136.16 275.13,-127.93 264.78,-130.2 268.45,-136.16"/>
<text text-anchor="middle" x="245.5" y="-156.8" font-family="Times,serif" font-size="14.00">2</text>
</g>
<!-- 5&#45;&gt;7 -->
<g id="edge4" class="edge">
<title>5&#45;&gt;7</title>
<path fill="none" stroke="black" d="M490.74,-165.11C503.75,-161.31 522.03,-155.97 536.95,-151.61"/>
<polygon fill="black" stroke="black" points="538.02,-154.94 546.64,-148.78 536.06,-148.23 538.02,-154.94"/>
<text text-anchor="middle" x="518.5" y="-162.8" font-family="Times,serif" font-size="14.00">7</text>
</g>
<!-- 3 -->
<g id="node6" class="node">
<title>3</title>
<ellipse fill="none" stroke="black" cx="382" cy="-119" rx="18" ry="18"/>
<text text-anchor="middle" x="382" y="-115.3" font-family="Times,serif" font-size="14.00">3</text>
</g>
<!-- 2&#45;&gt;3 -->
<g id="edge8" class="edge">
<title>2&#45;&gt;3</title>
<path fill="none" stroke="black" d="M309.16,-119C321.72,-119 339.02,-119 353.5,-119"/>
<polygon fill="black" stroke="black" points="353.89,-122.5 363.89,-119 353.89,-115.5 353.89,-122.5"/>
<text text-anchor="middle" x="336.5" y="-122.8" font-family="Times,serif" font-size="14.00">11</text>
</g>
<!-- 1 -->
<g id="node5" class="node">
<title>1</title>
<ellipse fill="none" stroke="black" cx="109" cy="-122" rx="18" ry="18"/>
<text text-anchor="middle" x="109" y="-118.3" font-family="Times,serif" font-size="14.00">1</text>
</g>
<!-- 1&#45;&gt;4 -->
<g id="edge5" class="edge">
<title>1&#45;&gt;4</title>
<path fill="none" stroke="black" d="M124.7,-131.41C138.48,-140.24 159.33,-153.59 175.43,-163.91"/>
<polygon fill="black" stroke="black" points="173.97,-167.13 184.28,-169.57 177.75,-161.23 173.97,-167.13"/>
<text text-anchor="middle" x="154.5" y="-158.8" font-family="Times,serif" font-size="14.00">10</text>
</g>
<!-- 1&#45;&gt;2 -->
<g id="edge7" class="edge">
<title>1&#45;&gt;2</title>
<path fill="none" stroke="black" d="M127.26,-121.71C158.57,-121.19 224.98,-120.08 262.57,-119.46"/>
<polygon fill="black" stroke="black" points="262.85,-122.95 272.79,-119.29 262.74,-115.95 262.85,-122.95"/>
<text text-anchor="middle" x="200" y="-123.8" font-family="Times,serif" font-size="14.00">8</text>
</g>
<!-- 1&#45;&gt;3 -->
<g id="edge6" class="edge">
<title>1&#45;&gt;3</title>
<path fill="none" stroke="black" d="M113.86,-104.53C118.4,-88.49 127.63,-65.53 145,-54 185.81,-26.9 207.65,-34.43 255,-47 294.9,-57.6 335.35,-84.13 359.3,-101.86"/>
<polygon fill="black" stroke="black" points="357.25,-104.7 367.34,-107.94 361.48,-99.12 357.25,-104.7"/>
<text text-anchor="middle" x="245.5" y="-50.8" font-family="Times,serif" font-size="14.00">10</text>
</g>
<!-- 3&#45;&gt;5 -->
<g id="edge9" class="edge">
<title>3&#45;&gt;5</title>
<path fill="none" stroke="black" d="M398.1,-127.65C411.86,-135.54 432.42,-147.32 448.36,-156.45"/>
<polygon fill="black" stroke="black" points="446.71,-159.54 457.13,-161.48 450.19,-153.47 446.71,-159.54"/>
<text text-anchor="middle" x="427.5" y="-152.8" font-family="Times,serif" font-size="14.00">6</text>
</g>
<!-- 3&#45;&gt;7 -->
<g id="edge10" class="edge">
<title>3&#45;&gt;7</title>
<path fill="none" stroke="black" d="M400.29,-119.72C421.69,-120.77 459.19,-123.16 491,-128 506.08,-130.29 522.72,-133.92 536.2,-137.14"/>
<polygon fill="black" stroke="black" points="535.7,-140.62 546.25,-139.6 537.37,-133.82 535.7,-140.62"/>
<text text-anchor="middle" x="473" y="-131.8" font-family="Times,serif" font-size="14.00">1</text>
</g>
<!-- 6 -->
<g id="node7" class="node">
<title>6</title>
<ellipse fill="none" stroke="black" cx="473" cy="-65" rx="18" ry="18"/>
<text text-anchor="middle" x="473" y="-61.3" font-family="Times,serif" font-size="14.00">6</text>
</g>
<!-- 3&#45;&gt;6 -->
<g id="edge11" class="edge">
<title>3&#45;&gt;6</title>
<path fill="none" stroke="black" d="M395.68,-107.14C402.07,-101.52 410.12,-94.97 418,-90 426.86,-84.41 437.16,-79.33 446.38,-75.23"/>
<polygon fill="black" stroke="black" points="448.02,-78.34 455.84,-71.19 445.27,-71.9 448.02,-78.34"/>
<text text-anchor="middle" x="427.5" y="-93.8" font-family="Times,serif" font-size="14.00">14</text>
</g>
<!-- 6&#45;&gt;7 -->
<g id="edge15" class="edge">
<title>6&#45;&gt;7</title>
<path fill="none" stroke="black" d="M490.49,-69.91C501.95,-73.93 517.08,-80.52 528,-90 537.08,-97.88 544.71,-108.68 550.51,-118.54"/>
<polygon fill="black" stroke="black" points="547.6,-120.52 555.49,-127.6 553.73,-117.15 547.6,-120.52"/>
<text text-anchor="middle" x="518.5" y="-93.8" font-family="Times,serif" font-size="14.00">16</text>
</g>
<!-- 0 -->
<g id="node8" class="node">
<title>0</title>
<ellipse fill="none" stroke="black" cx="18" cy="-76" rx="18" ry="18"/>
<text text-anchor="middle" x="18" y="-72.3" font-family="Times,serif" font-size="14.00">0</text>
</g>
<!-- 0&#45;&gt;2 -->
<g id="edge12" class="edge">
<title>0&#45;&gt;2</title>
<path fill="none" stroke="black" d="M35.95,-78.69C81.58,-85.93 207.28,-105.87 262.91,-114.7"/>
<polygon fill="black" stroke="black" points="262.63,-118.2 273.05,-116.31 263.73,-111.29 262.63,-118.2"/>
<text text-anchor="middle" x="154.5" y="-101.8" font-family="Times,serif" font-size="14.00">1</text>
</g>
<!-- 0&#45;&gt;1 -->
<g id="edge13" class="edge">
<title>0&#45;&gt;1</title>
<path fill="none" stroke="black" d="M34.5,-84.01C48.03,-91 67.89,-101.27 83.56,-109.37"/>
<polygon fill="black" stroke="black" points="82.18,-112.6 92.68,-114.08 85.4,-106.38 82.18,-112.6"/>
<text text-anchor="middle" x="63.5" y="-106.8" font-family="Times,serif" font-size="14.00">28</text>
</g>
<!-- 0&#45;&gt;6 -->
<g id="edge14" class="edge">
<title>0&#45;&gt;6</title>
<path fill="none" stroke="black" d="M27.74,-60.62C41.64,-38.41 71.02,0 108,0 108,0 108,0 383,0 412.67,0 439.05,-23.85 455.24,-42.65"/>
<polygon fill="black" stroke="black" points="452.69,-45.06 461.73,-50.57 458.1,-40.62 452.69,-45.06"/>
<text text-anchor="middle" x="245.5" y="-3.8" font-family="Times,serif" font-size="14.00">2</text>
</g>
</g>
</svg>
