<?xml version="1.0" encoding="UTF-8" standalone="no"?>
<!DOCTYPE svg PUBLIC "-//W3C//DTD SVG 1.1//EN"
 "http://www.w3.org/Graphics/SVG/1.1/DTD/svg11.dtd">
<!-- Generated by graphviz version 2.42.3 (20191010.1750)
 -->
<!-- Title: finite_state_machine Pages: 1 -->
<svg width="440pt" height="154pt"
 viewBox="0.00 0.00 440.00 154.00" xmlns="http://www.w3.org/2000/svg" xmlns:xlink="http://www.w3.org/1999/xlink">
<g id="graph0" class="graph" transform="scale(1 1) rotate(0) translate(4 150)">
<title>finite_state_machine</title>
<polygon fill="white" stroke="transparent" points="-4,4 -4,-150 436,-150 436,4 -4,4"/>
<!-- 0 -->
<g id="node1" class="node">
<title>0</title>
<ellipse fill="none" stroke="black" cx="18" cy="-77" rx="18" ry="18"/>
<text text-anchor="middle" x="18" y="-73.3" font-family="Times,serif" font-size="14.00">0</text>
</g>
<!-- 2 -->
<g id="node2" class="node">
<title>2</title>
<ellipse fill="none" stroke="black" cx="216" cy="-128" rx="18" ry="18"/>
<text text-anchor="middle" x="216" y="-124.3" font-family="Times,serif" font-size="14.00">2</text>
</g>
<!-- 0&#45;&gt;2 -->
<g id="edge1" class="edge">
<title>0&#45;&gt;2</title>
<path fill="none" stroke="black" d="M34,-86.01C40.07,-89.43 47.24,-93.17 54,-96 96.42,-113.73 107.64,-118.53 153,-126 164.24,-127.85 176.77,-128.51 187.61,-128.65"/>
<polygon fill="black" stroke="black" points="187.78,-132.15 197.78,-128.65 187.77,-125.15 187.78,-132.15"/>
<text text-anchor="middle" x="117" y="-125.8" font-family="Times,serif" font-size="14.00">8o</text>
</g>
<!-- 3 -->
<g id="node3" class="node">
<title>3</title>
<ellipse fill="none" stroke="black" cx="117" cy="-77" rx="18" ry="18"/>
<text text-anchor="middle" x="117" y="-73.3" font-family="Times,serif" font-size="14.00">3</text>
</g>
<!-- 0&#45;&gt;3 -->
<g id="edge2" class="edge">
<title>0&#45;&gt;3</title>
<path fill="none" stroke="black" d="M36.34,-77C50.82,-77 71.74,-77 88.5,-77"/>
<polygon fill="black" stroke="black" points="88.81,-80.5 98.81,-77 88.81,-73.5 88.81,-80.5"/>
<text text-anchor="middle" x="67.5" y="-80.8" font-family="Times,serif" font-size="14.00">10o</text>
</g>
<!-- 1 -->
<g id="node4" class="node">
<title>1</title>
<ellipse fill="none" stroke="black" cx="216" cy="-18" rx="18" ry="18"/>
<text text-anchor="middle" x="216" y="-14.3" font-family="Times,serif" font-size="14.00">1</text>
</g>
<!-- 0&#45;&gt;1 -->
<g id="edge3" class="edge">
<title>0&#45;&gt;1</title>
<path fill="none" stroke="black" d="M33.38,-67.53C48.9,-57.77 74.68,-42.91 99,-35 128.37,-25.45 163.69,-21.24 187.57,-19.41"/>
<polygon fill="black" stroke="black" points="187.94,-22.89 197.68,-18.72 187.47,-15.91 187.94,-22.89"/>
<text text-anchor="middle" x="117" y="-38.8" font-family="Times,serif" font-size="14.00">7o</text>
</g>
<!-- 4 -->
<g id="node5" class="node">
<title>4</title>
<ellipse fill="none" stroke="black" cx="315" cy="-71" rx="18" ry="18"/>
<text text-anchor="middle" x="315" y="-67.3" font-family="Times,serif" font-size="14.00">4</text>
</g>
<!-- 2&#45;&gt;4 -->
<g id="edge4" class="edge">
<title>2&#45;&gt;4</title>
<path fill="none" stroke="black" d="M232.16,-119.09C247.67,-109.97 272.02,-95.67 290.13,-85.03"/>
<polygon fill="black" stroke="black" points="292.1,-87.93 298.95,-79.84 288.56,-81.89 292.1,-87.93"/>
<text text-anchor="middle" x="265.5" y="-109.8" font-family="Times,serif" font-size="14.00">12o</text>
</g>
<!-- 3&#45;&gt;2 -->
<g id="edge6" class="edge">
<title>3&#45;&gt;2</title>
<path fill="none" stroke="black" d="M133.16,-84.97C148.44,-93.01 172.29,-105.55 190.31,-115.02"/>
<polygon fill="black" stroke="black" points="189.15,-118.36 199.63,-119.92 192.41,-112.17 189.15,-118.36"/>
<text text-anchor="middle" x="166.5" y="-111.8" font-family="Times,serif" font-size="14.00">2o</text>
</g>
<!-- 3&#45;&gt;1 -->
<g id="edge7" class="edge">
<title>3&#45;&gt;1</title>
<path fill="none" stroke="black" d="M130.72,-65.19C137.12,-59.59 145.17,-53.03 153,-48 164.51,-40.6 178.13,-33.82 189.66,-28.58"/>
<polygon fill="black" stroke="black" points="191.41,-31.64 199.16,-24.4 188.59,-25.23 191.41,-31.64"/>
<text text-anchor="middle" x="166.5" y="-51.8" font-family="Times,serif" font-size="14.00">11o</text>
</g>
<!-- 3&#45;&gt;4 -->
<g id="edge5" class="edge">
<title>3&#45;&gt;4</title>
<path fill="none" stroke="black" d="M135.05,-76.48C169.08,-75.44 245.66,-73.09 286.74,-71.83"/>
<polygon fill="black" stroke="black" points="286.96,-75.33 296.85,-71.53 286.75,-68.33 286.96,-75.33"/>
<text text-anchor="middle" x="216" y="-77.8" font-family="Times,serif" font-size="14.00">5o</text>
</g>
<!-- 1&#45;&gt;4 -->
<g id="edge8" class="edge">
<title>1&#45;&gt;4</title>
<path fill="none" stroke="black" d="M232.83,-24.97C245.54,-30.72 263.71,-39.33 279,-48 283.02,-50.28 287.21,-52.85 291.22,-55.42"/>
<polygon fill="black" stroke="black" points="289.34,-58.37 299.62,-60.94 293.19,-52.52 289.34,-58.37"/>
<text text-anchor="middle" x="265.5" y="-51.8" font-family="Times,serif" font-size="14.00">1o</text>
</g>
<!-- 5 -->
<g id="node6" class="node">
<title>5</title>
<ellipse fill="none" stroke="black" cx="414" cy="-30" rx="18" ry="18"/>
<text text-anchor="middle" x="414" y="-26.3" font-family="Times,serif" font-size="14.00">5</text>
</g>
<!-- 1&#45;&gt;5 -->
<g id="edge9" class="edge">
<title>1&#45;&gt;5</title>
<path fill="none" stroke="black" d="M234.05,-19.04C268.08,-21.13 344.66,-25.82 385.74,-28.33"/>
<polygon fill="black" stroke="black" points="385.65,-31.83 395.85,-28.95 386.08,-24.85 385.65,-31.83"/>
<text text-anchor="middle" x="315" y="-28.8" font-family="Times,serif" font-size="14.00">21o</text>
</g>
<!-- 4&#45;&gt;5 -->
<g id="edge10" class="edge">
<title>4&#45;&gt;5</title>
<path fill="none" stroke="black" d="M332.02,-64.23C347.04,-57.88 369.76,-48.28 387.32,-40.86"/>
<polygon fill="black" stroke="black" points="389.11,-43.9 396.96,-36.78 386.38,-37.45 389.11,-43.9"/>
<text text-anchor="middle" x="364.5" y="-58.8" font-family="Times,serif" font-size="14.00">14o</text>
</g>
</g>
</svg>
