<?xml version="1.0" encoding="UTF-8" standalone="no"?>
<!DOCTYPE svg PUBLIC "-//W3C//DTD SVG 1.1//EN"
 "http://www.w3.org/Graphics/SVG/1.1/DTD/svg11.dtd">
<!-- Generated by graphviz version 2.42.3 (20191010.1750)
 -->
<!-- Title: finite_state_machine Pages: 1 -->
<svg width="390pt" height="149pt"
 viewBox="0.00 0.00 390.00 149.00" xmlns="http://www.w3.org/2000/svg" xmlns:xlink="http://www.w3.org/1999/xlink">
<g id="graph0" class="graph" transform="scale(1 1) rotate(0) translate(4 145)">
<title>finite_state_machine</title>
<polygon fill="white" stroke="transparent" points="-4,4 -4,-145 386,-145 386,4 -4,4"/>
<!-- 2 -->
<g id="node1" class="node">
<title>2</title>
<ellipse fill="none" stroke="black" cx="191" cy="-123" rx="18" ry="18"/>
<text text-anchor="middle" x="191" y="-119.3" font-family="Times,serif" font-size="14.00">2</text>
</g>
<!-- 4 -->
<g id="node2" class="node">
<title>4</title>
<ellipse fill="none" stroke="black" cx="273" cy="-72" rx="18" ry="18"/>
<text text-anchor="middle" x="273" y="-68.3" font-family="Times,serif" font-size="14.00">4</text>
</g>
<!-- 2&#45;&gt;4 -->
<g id="edge1" class="edge">
<title>2&#45;&gt;4</title>
<path fill="none" stroke="black" d="M206.67,-113.65C218.4,-106.17 235.06,-95.55 248.63,-86.9"/>
<polygon fill="black" stroke="black" points="250.87,-89.62 257.42,-81.29 247.11,-83.72 250.87,-89.62"/>
<text text-anchor="middle" x="232" y="-103.8" font-family="Times,serif" font-size="14.00">9</text>
</g>
<!-- 5 -->
<g id="node3" class="node">
<title>5</title>
<ellipse fill="none" stroke="black" cx="364" cy="-36" rx="18" ry="18"/>
<text text-anchor="middle" x="364" y="-32.3" font-family="Times,serif" font-size="14.00">5</text>
</g>
<!-- 4&#45;&gt;5 -->
<g id="edge2" class="edge">
<title>4&#45;&gt;5</title>
<path fill="none" stroke="black" d="M289.91,-65.56C303.12,-60.22 322.15,-52.52 337.48,-46.32"/>
<polygon fill="black" stroke="black" points="338.97,-49.5 346.93,-42.5 336.34,-43.01 338.97,-49.5"/>
<text text-anchor="middle" x="318.5" y="-60.8" font-family="Times,serif" font-size="14.00">14</text>
</g>
<!-- 3 -->
<g id="node4" class="node">
<title>3</title>
<ellipse fill="none" stroke="black" cx="109" cy="-72" rx="18" ry="18"/>
<text text-anchor="middle" x="109" y="-68.3" font-family="Times,serif" font-size="14.00">3</text>
</g>
<!-- 3&#45;&gt;2 -->
<g id="edge4" class="edge">
<title>3&#45;&gt;2</title>
<path fill="none" stroke="black" d="M124.67,-81.35C136.4,-88.83 153.06,-99.45 166.63,-108.1"/>
<polygon fill="black" stroke="black" points="165.11,-111.28 175.42,-113.71 168.87,-105.38 165.11,-111.28"/>
<text text-anchor="middle" x="150" y="-103.8" font-family="Times,serif" font-size="14.00">1</text>
</g>
<!-- 3&#45;&gt;4 -->
<g id="edge3" class="edge">
<title>3&#45;&gt;4</title>
<path fill="none" stroke="black" d="M127.03,-72C155.03,-72 211.04,-72 244.65,-72"/>
<polygon fill="black" stroke="black" points="244.71,-75.5 254.71,-72 244.71,-68.5 244.71,-75.5"/>
<text text-anchor="middle" x="191" y="-75.8" font-family="Times,serif" font-size="14.00">5</text>
</g>
<!-- 1 -->
<g id="node5" class="node">
<title>1</title>
<ellipse fill="none" stroke="black" cx="191" cy="-18" rx="18" ry="18"/>
<text text-anchor="middle" x="191" y="-14.3" font-family="Times,serif" font-size="14.00">1</text>
</g>
<!-- 3&#45;&gt;1 -->
<g id="edge5" class="edge">
<title>3&#45;&gt;1</title>
<path fill="none" stroke="black" d="M122.84,-60.38C129.28,-54.83 137.31,-48.25 145,-43 151.49,-38.56 158.84,-34.22 165.69,-30.44"/>
<polygon fill="black" stroke="black" points="167.43,-33.47 174.58,-25.66 164.12,-27.3 167.43,-33.47"/>
<text text-anchor="middle" x="150" y="-46.8" font-family="Times,serif" font-size="14.00">4</text>
</g>
<!-- 1&#45;&gt;5 -->
<g id="edge9" class="edge">
<title>1&#45;&gt;5</title>
<path fill="none" stroke="black" d="M209.02,-19.79C238.73,-22.92 300.25,-29.4 335.88,-33.15"/>
<polygon fill="black" stroke="black" points="335.74,-36.65 346.05,-34.22 336.47,-29.69 335.74,-36.65"/>
<text text-anchor="middle" x="273" y="-31.8" font-family="Times,serif" font-size="14.00">11</text>
</g>
<!-- 0 -->
<g id="node6" class="node">
<title>0</title>
<ellipse fill="none" stroke="black" cx="18" cy="-72" rx="18" ry="18"/>
<text text-anchor="middle" x="18" y="-68.3" font-family="Times,serif" font-size="14.00">0</text>
</g>
<!-- 0&#45;&gt;2 -->
<g id="edge6" class="edge">
<title>0&#45;&gt;2</title>
<path fill="none" stroke="black" d="M34.01,-81C40.08,-84.41 47.24,-88.16 54,-91 93.01,-107.4 103.47,-110.86 145,-119 150.68,-120.11 156.82,-120.92 162.68,-121.5"/>
<polygon fill="black" stroke="black" points="162.54,-125 172.79,-122.32 163.1,-118.02 162.54,-125"/>
<text text-anchor="middle" x="109" y="-118.8" font-family="Times,serif" font-size="14.00">8</text>
</g>
<!-- 0&#45;&gt;3 -->
<g id="edge7" class="edge">
<title>0&#45;&gt;3</title>
<path fill="none" stroke="black" d="M36.16,-72C48.72,-72 66.02,-72 80.5,-72"/>
<polygon fill="black" stroke="black" points="80.89,-75.5 90.89,-72 80.89,-68.5 80.89,-75.5"/>
<text text-anchor="middle" x="63.5" y="-75.8" font-family="Times,serif" font-size="14.00">10</text>
</g>
<!-- 0&#45;&gt;1 -->
<g id="edge8" class="edge">
<title>0&#45;&gt;1</title>
<path fill="none" stroke="black" d="M32.78,-61.64C46.7,-51.76 69.19,-37.33 91,-30 114.37,-22.14 142.37,-19.31 162.63,-18.35"/>
<polygon fill="black" stroke="black" points="162.85,-21.84 172.72,-17.99 162.6,-14.85 162.85,-21.84"/>
<text text-anchor="middle" x="109" y="-33.8" font-family="Times,serif" font-size="14.00">7</text>
</g>
</g>
</svg>
